<svg width="277" height="43" viewBox="0 0 277 43" fill="none" xmlns="http://www.w3.org/2000/svg">
<path d="M17.008 22.328C17.008 24.456 16.656 26.288 15.952 27.824C15.248 29.344 14.216 30.52 12.856 31.352C11.496 32.168 9.824 32.576 7.84 32.576C6.352 32.576 5.08 32.376 4.024 31.976C2.968 31.576 2.136 31.136 1.528 30.656C0.936 30.16 0.568 29.792 0.424 29.552L2.488 25.208C2.68 25.48 2.96 25.816 3.328 26.216C3.712 26.6 4.216 26.944 4.84 27.248C5.48 27.536 6.264 27.68 7.192 27.68C8.264 27.68 9.152 27.44 9.856 26.96C10.56 26.464 11.088 25.76 11.44 24.848C11.792 23.936 11.968 22.84 11.968 21.56V0.319999H17.008V22.328ZM25.8884 23.36C25.9204 24.4 26.1684 25.336 26.6324 26.168C27.0964 27 27.7764 27.656 28.6724 28.136C29.5844 28.6 30.6964 28.832 32.0084 28.832C33.1444 28.832 34.1204 28.68 34.9364 28.376C35.7684 28.056 36.4564 27.68 37.0004 27.248C37.5444 26.8 37.9444 26.384 38.2004 26L40.4804 29.096C39.9844 29.768 39.3604 30.368 38.6084 30.896C37.8564 31.424 36.9204 31.832 35.8004 32.12C34.6964 32.424 33.3284 32.576 31.6964 32.576C29.5524 32.576 27.6884 32.136 26.1044 31.256C24.5204 30.376 23.2884 29.136 22.4084 27.536C21.5444 25.936 21.1124 24.064 21.1124 21.92C21.1124 20 21.5124 18.272 22.3124 16.736C23.1124 15.184 24.2724 13.96 25.7924 13.064C27.3284 12.168 29.1684 11.72 31.3124 11.72C33.3124 11.72 35.0484 12.12 36.5204 12.92C37.9924 13.72 39.1284 14.872 39.9284 16.376C40.7444 17.864 41.1524 19.664 41.1524 21.776C41.1524 21.904 41.1444 22.168 41.1284 22.568C41.1284 22.968 41.1124 23.232 41.0804 23.36H25.8884ZM36.3524 19.616C36.3364 19.104 36.1604 18.52 35.8244 17.864C35.5044 17.208 34.9844 16.64 34.2644 16.16C33.5444 15.664 32.5844 15.416 31.3844 15.416C30.1524 15.416 29.1524 15.656 28.3844 16.136C27.6164 16.6 27.0484 17.16 26.6804 17.816C26.3124 18.456 26.0964 19.056 26.0324 19.616H36.3524ZM54.9006 32.576C52.8366 32.576 50.9966 32.128 49.3806 31.232C47.7806 30.32 46.5246 29.088 45.6126 27.536C44.7006 25.968 44.2446 24.192 44.2446 22.208C44.2446 20.224 44.7006 18.44 45.6126 16.856C46.5246 15.272 47.7806 14.024 49.3806 13.112C50.9966 12.184 52.8366 11.72 54.9006 11.72C56.9646 11.72 58.7886 12.184 60.3726 13.112C61.9566 14.024 63.1966 15.272 64.0926 16.856C65.0046 18.44 65.4606 20.224 65.4606 22.208C65.4606 24.192 65.0046 25.968 64.0926 27.536C63.1966 29.088 61.9566 30.32 60.3726 31.232C58.7886 32.128 56.9646 32.576 54.9006 32.576ZM54.9006 28.256C56.0526 28.256 57.0526 27.992 57.9006 27.464C58.7486 26.936 59.4046 26.216 59.8686 25.304C60.3326 24.392 60.5646 23.352 60.5646 22.184C60.5646 21.016 60.3326 19.976 59.8686 19.064C59.4046 18.136 58.7486 17.4 57.9006 16.856C57.0526 16.312 56.0526 16.04 54.9006 16.04C53.7486 16.04 52.7406 16.312 51.8766 16.856C51.0286 17.4 50.3646 18.136 49.8846 19.064C49.4206 19.976 49.1886 21.016 49.1886 22.184C49.1886 23.352 49.4206 24.392 49.8846 25.304C50.3646 26.216 51.0286 26.936 51.8766 27.464C52.7406 27.992 53.7486 28.256 54.9006 28.256ZM81.5819 11.72C82.9099 11.72 84.1979 11.992 85.4459 12.536C86.6939 13.08 87.7179 13.952 88.5179 15.152C89.3339 16.336 89.7419 17.88 89.7419 19.784V32H84.5819V20.72C84.5819 18.944 84.1579 17.64 83.3099 16.808C82.4779 15.96 81.3979 15.536 80.0699 15.536C79.1899 15.536 78.3499 15.784 77.5499 16.28C76.7499 16.776 76.0939 17.448 75.5819 18.296C75.0859 19.144 74.8379 20.12 74.8379 21.224V32H69.7019V12.296H74.8379V15.608C74.9819 15.064 75.3659 14.496 75.9899 13.904C76.6299 13.296 77.4379 12.784 78.4139 12.368C79.3899 11.936 80.4459 11.72 81.5819 11.72ZM104.572 42.536C103.068 42.536 101.668 42.384 100.372 42.08C99.092 41.792 97.948 41.352 96.94 40.76C95.932 40.184 95.116 39.472 94.492 38.624L97.684 35.456C98.02 35.872 98.452 36.304 98.98 36.752C99.508 37.216 100.204 37.6 101.068 37.904C101.932 38.224 103.028 38.384 104.356 38.384C105.652 38.384 106.756 38.12 107.668 37.592C108.596 37.064 109.3 36.336 109.78 35.408C110.276 34.496 110.524 33.44 110.524 32.24V31.64H115.564V32.552C115.564 34.728 115.076 36.552 114.1 38.024C113.124 39.512 111.804 40.632 110.14 41.384C108.476 42.152 106.62 42.536 104.572 42.536ZM110.524 32V28.352C110.396 28.736 110.028 29.264 109.42 29.936C108.828 30.608 108.012 31.216 106.972 31.76C105.948 32.304 104.732 32.576 103.324 32.576C101.484 32.576 99.828 32.136 98.356 31.256C96.884 30.376 95.724 29.152 94.876 27.584C94.028 26.016 93.604 24.208 93.604 22.16C93.604 20.112 94.028 18.304 94.876 16.736C95.724 15.168 96.884 13.944 98.356 13.064C99.828 12.168 101.484 11.72 103.324 11.72C104.7 11.72 105.892 11.96 106.9 12.44C107.908 12.92 108.716 13.472 109.324 14.096C109.948 14.72 110.332 15.264 110.476 15.728V12.296H115.564V32H110.524ZM98.668 22.16C98.668 23.424 98.948 24.528 99.508 25.472C100.068 26.416 100.796 27.144 101.692 27.656C102.604 28.168 103.58 28.424 104.62 28.424C105.74 28.424 106.732 28.16 107.596 27.632C108.476 27.104 109.164 26.376 109.66 25.448C110.172 24.504 110.428 23.408 110.428 22.16C110.428 20.912 110.172 19.824 109.66 18.896C109.164 17.952 108.476 17.216 107.596 16.688C106.732 16.144 105.74 15.872 104.62 15.872C103.58 15.872 102.604 16.136 101.692 16.664C100.796 17.176 100.068 17.904 99.508 18.848C98.948 19.792 98.668 20.896 98.668 22.16ZM145.728 11.72C147.2 11.72 148.464 12.032 149.52 12.656C150.592 13.28 151.416 14.24 151.992 15.536C152.584 16.832 152.88 18.488 152.88 20.504V32H147.816V21.416C147.816 19.512 147.544 18.064 147 17.072C146.472 16.08 145.472 15.584 144 15.584C143.2 15.584 142.448 15.8 141.744 16.232C141.04 16.664 140.472 17.312 140.04 18.176C139.624 19.024 139.416 20.104 139.416 21.416V32H134.664V21.416C134.664 19.512 134.336 18.064 133.68 17.072C133.04 16.08 132.08 15.584 130.8 15.584C129.984 15.584 129.232 15.792 128.544 16.208C127.856 16.624 127.304 17.264 126.888 18.128C126.472 18.992 126.264 20.088 126.264 21.416V32H121.176V12.296H126.264V15.248C126.44 14.752 126.832 14.232 127.44 13.688C128.064 13.144 128.84 12.68 129.768 12.296C130.696 11.912 131.712 11.72 132.816 11.72C134.016 11.72 135.008 11.944 135.792 12.392C136.592 12.824 137.224 13.368 137.688 14.024C138.168 14.68 138.52 15.336 138.744 15.992C138.968 15.336 139.4 14.68 140.04 14.024C140.696 13.368 141.512 12.824 142.488 12.392C143.464 11.944 144.544 11.72 145.728 11.72ZM158.588 32V12.296H163.7V32H158.588ZM161.204 6.392C160.34 6.392 159.596 6.08 158.972 5.456C158.364 4.832 158.06 4.088 158.06 3.224C158.06 2.36 158.364 1.616 158.972 0.991999C159.596 0.351999 160.34 0.0319996 161.204 0.0319996C161.78 0.0319996 162.308 0.183999 162.788 0.487998C163.284 0.775998 163.676 1.16 163.964 1.64C164.268 2.104 164.42 2.632 164.42 3.224C164.42 4.088 164.108 4.832 163.484 5.456C162.86 6.08 162.1 6.392 161.204 6.392ZM181.473 11.72C182.801 11.72 184.089 11.992 185.337 12.536C186.585 13.08 187.609 13.952 188.409 15.152C189.225 16.336 189.633 17.88 189.633 19.784V32H184.473V20.72C184.473 18.944 184.049 17.64 183.201 16.808C182.369 15.96 181.289 15.536 179.961 15.536C179.081 15.536 178.241 15.784 177.441 16.28C176.641 16.776 175.985 17.448 175.473 18.296C174.977 19.144 174.729 20.12 174.729 21.224V32H169.593V12.296H174.729V15.608C174.873 15.064 175.257 14.496 175.881 13.904C176.521 13.296 177.329 12.784 178.305 12.368C179.281 11.936 180.337 11.72 181.473 11.72ZM206.978 0.319999H218.618C220.362 0.319999 221.938 0.687999 223.346 1.424C224.77 2.144 225.898 3.2 226.73 4.592C227.562 5.984 227.978 7.672 227.978 9.656C227.978 11.624 227.602 13.248 226.85 14.528C226.098 15.808 225.194 16.768 224.138 17.408C223.082 18.048 222.098 18.408 221.186 18.488L228.986 32H223.298L216.098 18.872H212.018V32H206.978V0.319999ZM212.018 15.224H216.818C218.514 15.224 219.938 14.8 221.09 13.952C222.242 13.104 222.818 11.72 222.818 9.8C222.818 7.864 222.25 6.488 221.114 5.672C219.978 4.856 218.562 4.448 216.866 4.448H212.018V15.224ZM242.807 27.416L249.047 12.296H254.159L240.767 41.984H235.583L240.095 32L231.935 12.296H237.119L242.807 27.416ZM261.841 21.968C261.841 23.888 262.233 25.416 263.017 26.552C263.817 27.688 265.073 28.256 266.785 28.256C268.513 28.256 269.769 27.688 270.553 26.552C271.337 25.416 271.729 23.888 271.729 21.968V12.296H276.817V22.616C276.817 24.6 276.425 26.344 275.641 27.848C274.857 29.336 273.721 30.496 272.233 31.328C270.745 32.16 268.929 32.576 266.785 32.576C264.657 32.576 262.849 32.16 261.361 31.328C259.873 30.496 258.737 29.336 257.953 27.848C257.169 26.344 256.777 24.6 256.777 22.616V12.296H261.841V21.968Z" fill="black"/>
</svg>
